<?xml version="1.0" standalone="no"?>
<!DOCTYPE svg PUBLIC "-//W3C//DTD SVG 20010904//EN"
 "http://www.w3.org/TR/2001/REC-SVG-20010904/DTD/svg10.dtd">
<svg version="1.0" xmlns="http://www.w3.org/2000/svg"
 width="500.000000pt" height="500.000000pt" viewBox="0 0 500.000000 500.000000"
 preserveAspectRatio="xMidYMid meet">
<metadata>
Created by potrace 1.14, written by Peter Selinger 2001-2017
</metadata>
<g transform="translate(0.000000,500.000000) scale(0.100000,-0.100000)"
fill="#000000" stroke="none">
<path d="M2319 3693 c-1 -5 -1 -12 0 -16 1 -5 -13 -6 -31 -3 -25 5 -28 4 -13
-3 12 -6 14 -10 6 -10 -8 -1 -12 -3 -9 -6 9 -10 59 15 53 25 -4 7 3 9 22 5 23
-4 24 -4 8 4 -25 12 -35 13 -36 4z"/>
<path d="M2398 3693 c12 -2 30 -2 40 0 9 3 -1 5 -23 4 -22 0 -30 -2 -17 -4z"/>
<path d="M2478 3692 c-13 -5 -8 -11 25 -25 23 -10 53 -33 67 -52 14 -19 29
-35 33 -35 5 0 1 10 -7 21 -12 18 -13 24 -1 35 15 15 45 19 45 6 0 -5 11 -15
25 -22 13 -7 26 -20 27 -29 2 -11 6 -12 11 -4 8 13 -55 66 -93 78 -14 4 -22 4
-18 0 4 -4 0 -14 -8 -23 -14 -13 -17 -13 -25 -1 -5 8 -9 17 -9 20 0 4 -15 9
-32 13 -26 5 -30 9 -18 16 17 11 4 12 -22 2z"/>
<path d="M2528 3683 c7 -3 16 -2 19 1 4 3 -2 6 -13 5 -11 0 -14 -3 -6 -6z"/>
<path d="M280 3670 c43 -7 44 -7 10 -9 -19 -2 -29 -5 -22 -8 7 -3 30 -2 50 2
31 6 34 9 17 15 -11 5 -38 8 -60 8 l-40 -1 45 -7z"/>
<path d="M420 3669 c0 -5 9 -9 20 -9 11 0 20 2 20 4 0 2 -9 6 -20 9 -11 3 -20
1 -20 -4z"/>
<path d="M470 3669 c0 -5 5 -7 10 -4 6 3 10 8 10 11 0 2 -4 4 -10 4 -5 0 -10
-5 -10 -11z"/>
<path d="M548 3673 c6 -2 18 -2 25 0 6 3 1 5 -13 5 -14 0 -19 -2 -12 -5z"/>
<path d="M1240 3671 l45 -7 -43 -6 -42 -5 42 1 c57 1 55 21 -2 22 l-45 2 45
-7z"/>
<path d="M1430 3669 c0 -5 5 -7 10 -4 6 3 10 8 10 11 0 2 -4 4 -10 4 -5 0 -10
-5 -10 -11z"/>
<path d="M1505 3670 c3 -5 12 -7 20 -3 9 3 22 0 30 -7 8 -6 20 -10 27 -7 8 3
1 9 -15 16 -35 14 -70 14 -62 1z"/>
<path d="M1596 3669 c3 -5 17 -9 31 -9 32 0 23 12 -12 15 -14 2 -23 -1 -19 -6z"/>
<path d="M1698 3673 c12 -2 32 -2 45 0 12 2 2 4 -23 4 -25 0 -35 -2 -22 -4z"/>
<path d="M3020 3664 c0 -10 5 -26 10 -34 8 -11 9 -7 4 15 -8 37 -14 45 -14 19z"/>
<path d="M3080 3671 c-44 -6 -42 -7 32 -15 76 -8 104 -3 93 15 -7 10 -53 10
-125 0z m103 -8 c-13 -2 -33 -2 -45 0 -13 2 -3 4 22 4 25 0 35 -2 23 -4z"/>
<path d="M3704 3649 c-7 -15 -24 -36 -36 -46 -13 -10 -29 -27 -37 -38 -8 -11
9 3 37 31 28 28 54 49 58 45 4 -3 4 0 0 7 -4 7 -1 12 8 12 8 0 17 4 20 8 2 4
-5 8 -16 8 -11 0 -26 -12 -34 -27z"/>
<path d="M4072 3672 c-18 -12 8 -23 46 -21 23 1 22 3 -8 9 l-35 7 43 2 c27 0
41 -3 37 -9 -3 -5 -1 -10 5 -10 7 0 10 6 8 13 -5 14 -77 21 -96 9z"/>
<path d="M4742 3671 c-7 -4 -14 -14 -15 -22 -2 -8 -6 -20 -10 -26 -5 -7 -4
-13 1 -13 7 0 18 17 40 63 4 9 0 9 -16 -2z"/>
<path d="M671 3666 c2 -2 22 -6 44 -9 28 -5 34 -4 20 3 -19 8 -73 14 -64 6z"/>
<path d="M1770 3654 c0 -8 5 -12 10 -9 6 3 10 10 10 16 0 5 -4 9 -10 9 -5 0
-10 -7 -10 -16z"/>
<path d="M2204 3662 c-13 -8 -2 -46 16 -57 6 -4 21 3 33 16 17 18 18 21 4 16
-9 -3 -17 -2 -17 3 0 6 -8 10 -17 10 -15 0 -16 2 -3 10 8 5 11 10 5 10 -5 0
-15 -4 -21 -8z m31 -33 c11 -17 -1 -21 -15 -4 -8 9 -8 15 -2 15 6 0 14 -5 17
-11z"/>
<path d="M2990 3660 c0 -5 5 -10 10 -10 6 0 10 5 10 10 0 6 -4 10 -10 10 -5 0
-10 -4 -10 -10z"/>
<path d="M3998 3663 c6 -2 18 -2 25 0 6 3 1 5 -13 5 -14 0 -19 -2 -12 -5z"/>
<path d="M4210 3666 c0 -2 8 -10 18 -17 15 -13 16 -12 3 4 -13 16 -21 21 -21
13z"/>
<path d="M397 3646 c-4 -10 -18 -13 -46 -11 -23 2 -41 -1 -41 -6 0 -5 23 -9
50 -9 43 0 50 3 50 20 0 23 -6 26 -13 6z"/>
<path d="M800 3654 c-12 -4 -15 -14 -11 -42 l5 -37 6 35 c4 30 9 35 30 32 20
-2 22 0 10 8 -8 5 -17 9 -20 9 -3 -1 -12 -3 -20 -5z"/>
<path d="M1660 3650 c-10 -7 -1 -8 30 -4 56 8 64 14 19 14 -19 0 -41 -5 -49
-10z"/>
<path d="M420 3636 c0 -19 19 -22 21 -3 1 6 5 -4 9 -23 l8 -35 -1 35 c-2 24
-7 36 -19 38 -11 2 -18 -3 -18 -12z"/>
<path d="M680 3642 c0 -4 9 -15 20 -25 24 -20 27 -6 4 17 -17 18 -24 20 -24 8z"/>
<path d="M1282 3643 c-6 -3 -10 -9 -6 -14 7 -12 41 -12 48 0 7 10 -23 20 -42
14z"/>
<path d="M1351 3634 c0 -11 3 -14 6 -6 3 7 2 16 -1 19 -3 4 -6 -2 -5 -13z"/>
<path d="M251 3624 c0 -11 3 -14 6 -6 3 7 2 16 -1 19 -3 4 -6 -2 -5 -13z"/>
<path d="M270 3613 c0 -13 -4 -22 -9 -19 -5 4 -7 -3 -4 -14 3 -11 10 -20 15
-20 6 0 8 6 5 13 -3 8 -1 20 4 28 6 10 9 8 9 -11 0 -14 5 -32 11 -40 9 -12 10
-12 5 3 -3 10 -6 33 -6 51 0 22 -5 33 -15 33 -9 0 -15 -10 -15 -24z"/>
<path d="M1728 3633 c7 -3 16 -2 19 1 4 3 -2 6 -13 5 -11 0 -14 -3 -6 -6z"/>
<path d="M2611 3631 c-11 -7 -11 -13 2 -32 l16 -23 -2 32 c-1 18 -2 32 -2 32
0 0 -6 -4 -14 -9z"/>
<path d="M3000 3611 c0 -17 5 -33 10 -36 6 -4 10 8 10 29 0 20 -4 36 -10 36
-5 0 -10 -13 -10 -29z"/>
<path d="M4033 3601 c12 -22 23 -38 25 -37 5 6 -31 76 -39 76 -4 0 2 -18 14
-39z"/>
<path d="M760 3615 c0 -8 2 -15 4 -15 2 0 6 7 10 15 3 8 1 15 -4 15 -6 0 -10
-7 -10 -15z"/>
<path d="M1678 3623 c7 -3 16 -2 19 1 4 3 -2 6 -13 5 -11 0 -14 -3 -6 -6z"/>
<path d="M1755 3620 c-4 -6 -16 -8 -28 -5 -17 5 -19 4 -7 -4 21 -15 37 -13 44
4 6 17 0 20 -9 5z"/>
<path d="M884 3600 c0 -21 16 -29 16 -7 0 6 9 1 20 -13 11 -14 20 -20 20 -14
0 10 -41 54 -51 54 -3 0 -5 -9 -5 -20z"/>
<path d="M2112 3607 c-6 -7 -7 -18 -3 -26 6 -9 11 -10 15 -2 4 6 1 11 -6 11
-8 1 -6 6 6 15 11 8 15 15 9 15 -6 0 -15 -6 -21 -13z"/>
<path d="M4241 3604 c0 -11 3 -14 6 -6 3 7 2 16 -1 19 -3 4 -6 -2 -5 -13z"/>
<path d="M730 3602 c0 -12 19 -26 26 -19 2 2 -2 10 -11 17 -9 8 -15 8 -15 2z"/>
<path d="M2161 3602 c-1 -7 -5 -10 -11 -7 -6 3 -7 -1 -4 -9 4 -9 1 -16 -6 -16
-9 0 -7 -7 5 -20 10 -11 21 -18 24 -15 3 4 0 10 -7 14 -7 4 -10 15 -6 25 5 13
9 14 14 5 6 -8 12 -4 21 12 11 21 11 23 -3 11 -13 -10 -17 -10 -21 0 -4 11 -6
10 -6 0z"/>
<path d="M2640 3606 c0 -2 7 -7 16 -10 8 -3 12 -2 9 4 -6 10 -25 14 -25 6z"/>
<path d="M340 3590 c0 -13 30 -13 50 0 11 7 7 10 -17 10 -18 0 -33 -4 -33 -10z"/>
<path d="M1156 3555 c3 -27 10 -75 14 -105 8 -48 8 -45 4 22 -3 43 -10 90 -14
105 -7 21 -8 14 -4 -22z"/>
<path d="M1205 3590 c3 -5 11 -10 16 -10 6 0 7 5 4 10 -3 6 -11 10 -16 10 -6
0 -7 -4 -4 -10z"/>
<path d="M4100 3590 c0 -5 7 -7 15 -4 8 4 15 8 15 10 0 2 -7 4 -15 4 -8 0 -15
-4 -15 -10z"/>
<path d="M4697 3588 c-38 -96 -47 -121 -38 -113 12 13 53 116 48 122 -3 2 -7
-2 -10 -9z"/>
<path d="M2067 3576 c-17 -13 -17 -14 0 -20 10 -4 14 -4 10 0 -4 4 -2 13 4 21
14 17 9 16 -14 -1z"/>
<path d="M2192 3570 c-7 -11 -8 -20 -2 -20 5 0 14 9 20 20 6 11 7 20 3 20 -5
0 -14 -9 -21 -20z"/>
<path d="M2716 3575 c-3 -9 -2 -14 3 -10 5 3 11 0 13 -7 3 -8 6 -9 11 -1 4 6
1 16 -7 22 -10 9 -15 8 -20 -4z"/>
<path d="M4256 3573 c-6 -14 -5 -15 5 -6 7 7 10 15 7 18 -3 3 -9 -2 -12 -12z"/>
<path d="M770 3565 c0 -8 4 -15 10 -15 5 0 7 7 4 15 -4 8 -8 15 -10 15 -2 0
-4 -7 -4 -15z"/>
<path d="M2635 3570 c-4 -6 -11 -8 -16 -5 -12 8 -11 3 6 -36 15 -32 16 -32 10
-6 -3 16 -1 35 6 43 6 8 9 14 6 14 -3 0 -9 -5 -12 -10z"/>
<path d="M900 3555 c0 -8 7 -15 16 -15 14 0 14 3 4 15 -7 8 -14 15 -16 15 -2
0 -4 -7 -4 -15z"/>
<path d="M4066 3554 c-8 -22 -4 -25 11 -9 7 8 9 16 4 19 -5 3 -12 -1 -15 -10z"/>
<path d="M3013 3520 c0 -25 2 -35 4 -22 2 12 2 32 0 45 -2 12 -4 2 -4 -23z"/>
<path d="M1220 3240 c0 -200 4 -310 10 -310 6 0 10 110 10 310 0 200 -4 310
-10 310 -6 0 -10 -110 -10 -310z"/>
<path d="M2032 3538 c-17 -17 -15 -33 3 -18 12 10 18 10 33 -1 14 -11 13 -10
-2 9 -22 26 -19 25 -34 10z"/>
<path d="M2752 3534 c-11 -12 -10 -18 1 -35 10 -13 17 -16 22 -10 3 6 1 11 -4
11 -6 0 -11 7 -11 17 0 15 2 15 19 -1 11 -10 18 -23 15 -30 -3 -7 2 -28 10
-47 9 -19 15 -26 16 -16 0 9 5 17 10 17 6 0 5 8 -2 19 -7 11 -16 17 -22 14 -5
-4 -7 0 -4 8 3 8 -4 26 -16 41 -18 22 -23 24 -34 12z"/>
<path d="M4115 3540 c-3 -5 1 -10 9 -10 9 0 16 5 16 10 0 6 -4 10 -9 10 -6 0
-13 -4 -16 -10z"/>
<path d="M783 3520 c-6 -22 -7 -23 -14 -4 -5 14 -8 15 -8 3 -1 -8 5 -23 12
-34 11 -14 16 -15 22 -5 5 9 4 11 -3 6 -15 -9 -15 -1 -1 26 6 11 8 23 4 26 -3
3 -9 -5 -12 -18z"/>
<path d="M2165 3506 c-5 -6 -11 -20 -13 -31 -2 -15 2 -13 14 8 16 30 16 43 -1
23z"/>
<path d="M4080 3510 c0 -5 7 -10 16 -10 8 0 12 5 9 10 -3 6 -10 10 -16 10 -5
0 -9 -4 -9 -10z"/>
<path d="M880 3500 c0 -5 7 -10 15 -10 8 0 15 5 15 10 0 6 -7 10 -15 10 -8 0
-15 -4 -15 -10z"/>
<path d="M1996 3501 c-3 -5 1 -11 9 -14 9 -4 12 -1 8 9 -6 16 -10 17 -17 5z"/>
<path d="M4268 3499 c-5 -12 1 -15 22 -15 19 0 26 4 23 13 -4 10 -9 11 -18 3
-9 -8 -14 -7 -17 2 -3 8 -6 8 -10 -3z"/>
<path d="M2047 3489 c7 -7 15 -10 18 -7 3 3 -2 9 -12 12 -14 6 -15 5 -6 -5z"/>
<path d="M2718 3483 c-20 -5 -24 -48 -8 -73 7 -10 8 -3 5 25 -2 22 -2 32 1 23
8 -26 21 -22 26 7 3 14 2 24 -1 24 -3 -1 -14 -3 -23 -6z"/>
<path d="M313 3440 c0 -25 2 -35 4 -22 2 12 2 32 0 45 -2 12 -4 2 -4 -23z"/>
<path d="M1986 3467 c3 -10 9 -15 12 -12 3 3 0 11 -7 18 -10 9 -11 8 -5 -6z"/>
<path d="M2120 3473 c0 -5 8 -17 17 -28 14 -18 15 -18 9 -2 -3 10 -6 23 -6 28
0 5 -4 9 -10 9 -5 0 -10 -3 -10 -7z"/>
<path d="M2653 3450 l12 -31 7 28 c4 15 5 29 3 32 -3 2 -5 -1 -5 -9 0 -10 -3
-10 -14 0 -13 10 -13 7 -3 -20z"/>
<path d="M4126 3467 c3 -10 9 -15 12 -12 3 3 0 11 -7 18 -10 9 -11 8 -5 -6z"/>
<path d="M4151 3464 c0 -11 3 -14 6 -6 3 7 2 16 -1 19 -3 4 -6 -2 -5 -13z"/>
<path d="M1960 3439 c-7 -11 -10 -23 -7 -25 2 -2 9 7 15 21 14 30 7 33 -8 4z"/>
<path d="M2095 3400 c2 -42 1 -58 -5 -45 -5 11 -9 15 -9 9 -1 -7 6 -27 14 -45
8 -19 14 -26 15 -16 0 9 5 17 10 17 6 0 10 5 10 11 0 8 -5 7 -16 -2 -13 -11
-15 -9 -10 12 3 13 2 47 -4 74 l-9 50 4 -65z"/>
<path d="M3515 3449 c-4 -6 -5 -12 -2 -15 2 -3 7 2 10 11 7 17 1 20 -8 4z"/>
<path d="M4321 3444 c0 -11 3 -14 6 -6 3 7 2 16 -1 19 -3 4 -6 -2 -5 -13z"/>
<path d="M786 3435 c4 -8 8 -15 10 -15 2 0 4 7 4 15 0 8 -4 15 -10 15 -5 0 -7
-7 -4 -15z"/>
<path d="M4134 3403 c14 -28 30 -54 36 -58 5 -3 10 -16 11 -28 0 -21 1 -21 9
-2 6 15 2 24 -13 36 -11 9 -17 21 -13 27 4 7 0 24 -8 39 -8 16 -15 22 -16 14
0 -11 -4 -10 -15 5 -9 10 -4 -4 9 -33z m26 -18 c0 -5 -5 -3 -10 5 -5 8 -10 20
-10 25 0 6 5 3 10 -5 5 -8 10 -19 10 -25z"/>
<path d="M4622 3424 c-7 -14 -8 -23 -2 -19 15 9 32 45 22 45 -5 0 -14 -12 -20
-26z"/>
<path d="M2112 3420 c0 -14 2 -19 5 -12 2 6 2 18 0 25 -3 6 -5 1 -5 -13z"/>
<path d="M2060 3421 c0 -6 4 -13 10 -16 6 -3 7 1 4 9 -7 18 -14 21 -14 7z"/>
<path d="M2747 3410 c-6 -22 0 -25 22 -11 7 5 10 14 7 20 -11 17 -23 13 -29
-9z"/>
<path d="M3462 3396 c-18 -19 -32 -38 -32 -42 0 -4 16 10 35 30 32 34 40 46
32 46 -1 0 -17 -15 -35 -34z"/>
<path d="M4333 3414 c-7 -7 -9 -15 -4 -19 5 -3 12 1 15 7 3 7 4 2 1 -12 -5
-31 4 -44 30 -47 19 -1 19 -1 3 11 -10 7 -18 22 -18 32 0 31 -13 44 -27 28z"/>
<path d="M2685 3403 c4 -15 1 -23 -12 -26 -16 -4 -16 -5 -1 -6 23 -1 31 15 18
36 -10 16 -10 15 -5 -4z"/>
<path d="M776 3387 c13 -43 25 -54 19 -17 -5 27 -4 32 5 20 9 -12 11 -12 8 -1
-2 8 -12 15 -21 17 -14 2 -16 -2 -11 -19z"/>
<path d="M1965 3402 c-3 -3 -5 -12 -4 -21 0 -12 3 -11 10 4 7 14 8 7 4 -25 -7
-53 10 -43 18 11 4 27 2 36 -9 36 -8 0 -16 -3 -19 -5z"/>
<path d="M885 3389 c-11 -16 -1 -19 13 -3 7 8 8 14 3 14 -5 0 -13 -5 -16 -11z"/>
<path d="M950 3390 c0 -5 -8 -6 -17 -3 -15 6 -16 4 -6 -8 10 -12 7 -21 -14
-48 -14 -18 -29 -28 -32 -23 -4 6 -17 5 -36 -4 l-30 -14 33 5 c23 3 31 1 26
-7 -4 -6 4 -3 18 8 29 22 83 104 68 104 -6 0 -10 -4 -10 -10z"/>
<path d="M4195 3380 c3 -5 8 -10 11 -10 2 0 4 5 4 10 0 6 -5 10 -11 10 -5 0
-7 -4 -4 -10z"/>
<path d="M1926 3354 c-4 -14 -5 -28 -3 -31 3 -2 8 8 11 23 4 14 5 28 3 31 -3
2 -8 -8 -11 -23z"/>
<path d="M760 3360 c0 -8 5 -22 10 -30 9 -13 10 -13 10 0 0 8 -5 22 -10 30 -9
13 -10 13 -10 0z"/>
<path d="M900 3359 c0 -5 5 -7 10 -4 6 3 10 8 10 11 0 2 -4 4 -10 4 -5 0 -10
-5 -10 -11z"/>
<path d="M414 3326 c-7 -14 -8 -30 -3 -38 6 -9 9 -6 9 12 0 15 3 20 8 13 5 -8
13 -9 22 -3 13 8 12 10 -2 10 -9 0 -18 7 -20 15 -2 10 -6 7 -14 -9z"/>
<path d="M4220 3340 c0 -5 5 -10 10 -10 6 0 10 5 10 10 0 6 -4 10 -10 10 -5 0
-10 -4 -10 -10z"/>
<path d="M4551 3274 c-19 -41 -32 -77 -29 -79 2 -2 19 30 37 71 18 42 31 78
29 79 -2 2 -19 -30 -37 -71z"/>
<path d="M1945 3330 c-3 -5 -1 -10 4 -10 6 0 11 5 11 10 0 6 -2 10 -4 10 -3 0
-8 -4 -11 -10z"/>
<path d="M3397 3324 c-9 -10 20 -61 39 -68 10 -4 7 4 -10 25 -14 17 -24 35
-20 40 6 10 0 12 -9 3z"/>
<path d="M283 3240 c0 -47 2 -66 4 -42 2 23 2 61 0 85 -2 23 -4 4 -4 -43z"/>
<path d="M1174 3200 c0 -69 1 -97 3 -62 2 34 2 90 0 125 -2 34 -3 6 -3 -63z"/>
<path d="M3020 3278 c-3 -26 -1 -43 3 -39 5 5 7 26 5 47 l-3 39 -5 -47z"/>
<path d="M4226 3299 c2 -13 2 -18 -2 -11 -6 13 -24 7 -24 -9 0 -6 5 -7 10 -4
6 3 10 0 11 -7 0 -7 5 -3 11 10 8 16 8 26 0 34 -8 8 -10 5 -6 -13z"/>
<path d="M725 3300 c-3 -5 12 -12 35 -16 22 -4 43 -11 46 -15 3 -5 10 -9 17
-9 23 0 -29 29 -53 30 -20 0 -22 2 -10 10 12 8 11 10 -7 10 -12 0 -25 -4 -28
-10z"/>
<path d="M3370 3292 c0 -5 7 -15 15 -22 8 -7 15 -9 15 -6 0 4 -7 14 -15 22 -8
9 -15 11 -15 6z"/>
<path d="M4395 3271 c-8 -36 3 -81 15 -61 6 9 10 7 15 -9 3 -11 3 -25 0 -31
-3 -5 -1 -10 4 -10 14 0 14 26 0 52 -8 14 -8 22 0 27 7 4 4 16 -8 35 l-19 28
-7 -31z m20 -31 c-4 -12 -9 -19 -12 -17 -3 3 -2 15 2 27 4 12 9 19 12 17 3 -3
2 -15 -2 -27z"/>
<path d="M430 3280 c0 -5 5 -10 11 -10 5 0 7 5 4 10 -3 6 -8 10 -11 10 -2 0
-4 -4 -4 -10z"/>
<path d="M712 3274 c10 -10 20 -16 22 -13 3 3 -5 11 -17 18 -21 13 -21 12 -5
-5z"/>
<path d="M3339 3270 c-17 -18 -38 -50 -24 -38 4 4 14 3 20 -2 9 -8 14 -6 18 5
4 9 13 12 24 9 11 -4 14 -3 7 3 -6 4 -15 15 -20 24 -8 14 -11 13 -25 -1z m13
-22 c-7 -7 -12 -8 -12 -2 0 6 3 14 7 17 3 4 9 5 12 2 2 -3 -1 -11 -7 -17z"/>
<path d="M674 3271 c-5 -5 -22 -11 -39 -14 -16 -2 -7 -4 22 -3 29 0 49 3 45 6
-4 3 -10 8 -13 12 -3 4 -10 4 -15 -1z"/>
<path d="M410 3255 c0 -8 4 -15 10 -15 5 0 7 7 4 15 -4 8 -8 15 -10 15 -2 0
-4 -7 -4 -15z"/>
<path d="M2108 3250 c-7 -24 -3 -38 8 -28 3 4 4 17 2 30 l-3 23 -7 -25z"/>
<path d="M451 3244 c0 -11 3 -14 6 -6 3 7 2 16 -1 19 -3 4 -6 -2 -5 -13z"/>
<path d="M4313 3245 c-8 -9 -9 -16 -3 -20 6 -3 13 1 16 10 9 21 2 26 -13 10z"/>
<path d="M560 3240 c0 -5 5 -10 10 -10 6 0 10 5 10 10 0 6 -4 10 -10 10 -5 0
-10 -4 -10 -10z"/>
<path d="M702 3239 c-13 -5 -36 -7 -50 -4 l-27 5 24 -10 c27 -12 81 -4 81 11
0 5 -1 9 -2 8 -2 0 -13 -4 -26 -10z"/>
<path d="M4226 3217 c9 -16 18 -26 21 -23 3 3 0 12 -6 20 -7 8 -10 19 -7 24 3
5 -1 9 -9 9 -12 0 -11 -5 1 -30z"/>
<path d="M1350 3235 c0 -5 5 -17 10 -25 5 -8 10 -10 10 -5 0 6 -5 17 -10 25
-5 8 -10 11 -10 5z"/>
<path d="M3450 3231 c0 -5 -2 -15 -5 -23 -3 -7 1 -22 10 -33 11 -14 13 -15 9
-4 -3 10 -1 20 5 24 6 3 11 11 11 16 0 6 -5 7 -12 3 -8 -5 -9 -2 -5 9 3 10 2
17 -3 17 -6 0 -10 -4 -10 -9z"/>
<path d="M408 3223 c6 -2 18 -2 25 0 6 3 1 5 -13 5 -14 0 -19 -2 -12 -5z"/>
<path d="M790 3219 c0 -5 16 -17 35 -25 40 -16 48 -17 41 -5 -4 5 0 12 6 14 7
3 -3 4 -22 1 -29 -4 -31 -3 -15 6 17 9 16 9 -8 5 -19 -4 -26 -2 -22 5 3 5 1
10 -4 10 -6 0 -11 -5 -11 -11z"/>
<path d="M710 3211 c0 -4 11 -6 25 -3 14 2 25 6 25 8 0 2 -11 4 -25 4 -14 0
-25 -4 -25 -9z"/>
<path d="M1327 3213 c-4 -3 -7 -11 -7 -17 0 -6 5 -5 12 2 6 6 9 14 7 17 -3 3
-9 2 -12 -2z"/>
<path d="M1380 3209 c0 -5 5 -7 10 -4 6 3 10 8 10 11 0 2 -4 4 -10 4 -5 0 -10
-5 -10 -11z"/>
<path d="M1505 3210 c-25 -11 1 -11 35 0 20 6 21 8 5 8 -11 0 -29 -3 -40 -8z"/>
<path d="M1610 3210 l-35 -7 35 -1 c19 0 44 3 55 8 l20 9 -20 -1 c-11 0 -36
-4 -55 -8z"/>
<path d="M770 3200 c0 -5 5 -10 11 -10 5 0 7 5 4 10 -3 6 -8 10 -11 10 -2 0
-4 -4 -4 -10z"/>
<path d="M3240 3163 c-30 -31 -35 -38 -14 -22 28 22 70 69 62 69 -2 0 -24 -21
-48 -47z"/>
<path d="M3315 3200 c-3 -5 -1 -10 4 -10 6 0 11 5 11 10 0 6 -2 10 -4 10 -3 0
-8 -4 -11 -10z"/>
<path d="M747 3176 c24 -32 50 -39 56 -15 6 21 -8 26 -16 7 -3 -9 -10 -6 -22
10 -9 12 -21 22 -26 22 -5 0 -2 -11 8 -24z"/>
<path d="M3343 3184 c-15 -15 -17 -34 -4 -34 8 0 24 41 18 46 -1 1 -8 -4 -14
-12z"/>
<path d="M885 3180 c3 -5 12 -7 20 -3 8 3 15 0 15 -6 0 -6 5 -11 11 -11 8 0 8
5 -1 15 -13 16 -55 21 -45 5z"/>
<path d="M1351 3174 c0 -11 3 -14 6 -6 3 7 2 16 -1 19 -3 4 -6 -2 -5 -13z"/>
<path d="M2100 3175 c0 -8 5 -15 10 -15 6 0 10 7 10 15 0 8 -4 15 -10 15 -5 0
-10 -7 -10 -15z"/>
<path d="M3483 3178 c2 -7 8 -13 13 -13 18 0 35 -17 30 -30 -2 -7 13 -32 35
-56 44 -48 45 -49 25 -49 -8 0 -24 12 -35 26 -13 17 -21 21 -21 12 0 -17 41
-58 57 -58 13 0 24 -24 19 -42 -1 -7 -1 -9 2 -4 2 4 8 3 12 -4 6 -11 12 -10
24 3 15 14 14 18 -6 41 -47 53 -73 87 -73 96 0 13 -65 90 -76 90 -6 0 -9 -6
-6 -12z m68 -65 c13 -16 12 -17 -3 -4 -17 13 -22 21 -14 21 2 0 10 -8 17 -17z
m89 -140 c-1 -11 -40 37 -40 49 0 6 9 -1 20 -15 11 -14 20 -29 20 -34z"/>
<path d="M4293 3173 c-10 -16 -13 -16 -23 -3 -8 11 -9 8 -4 -15 8 -35 14 -45
14 -22 0 9 4 18 9 21 5 4 7 -4 5 -16 -4 -21 -4 -21 6 1 14 33 9 58 -7 34z"/>
<path d="M400 3170 c0 -5 7 -7 15 -4 8 4 15 8 15 10 0 2 -7 4 -15 4 -8 0 -15
-4 -15 -10z"/>
<path d="M4503 3165 c0 -8 4 -12 9 -9 5 3 6 10 3 15 -9 13 -12 11 -12 -6z"/>
<path d="M3270 3161 c0 -6 4 -13 10 -16 6 -3 7 1 4 9 -7 18 -14 21 -14 7z"/>
<path d="M1901 3155 c1 -19 18 -51 18 -35 0 8 -4 22 -9 30 -5 8 -9 11 -9 5z"/>
<path d="M3013 3120 c0 -25 2 -35 4 -22 2 12 2 32 0 45 -2 12 -4 2 -4 -23z"/>
<path d="M960 3145 c0 -5 5 -17 10 -25 5 -8 10 -10 10 -5 0 6 -5 17 -10 25 -5
8 -10 11 -10 5z"/>
<path d="M2092 3103 c-6 -20 -9 -39 -7 -42 3 -2 5 1 5 8 0 7 4 10 9 7 5 -4 7
3 4 14 -3 11 0 20 6 20 6 0 11 7 11 15 0 28 -17 15 -28 -22z"/>
<path d="M3335 3123 c-14 -14 -18 -14 -26 -2 -5 8 -9 9 -9 3 0 -6 12 -21 27
-35 15 -13 21 -16 14 -6 -8 9 -11 21 -7 24 4 4 11 1 16 -6 5 -10 8 -6 7 12 -2
32 -1 31 -22 10z"/>
<path d="M4483 3125 c-3 -9 -3 -18 -1 -21 3 -3 8 4 11 16 6 23 -1 27 -10 5z"/>
<path d="M982 3090 c-15 -24 -16 -76 -2 -85 7 -4 9 9 5 37 -3 30 -2 35 3 18
l8 -25 6 27 c7 36 -5 52 -20 28z"/>
<path d="M4330 3094 c0 -8 5 -12 10 -9 6 4 8 11 5 16 -9 14 -15 11 -15 -7z"/>
<path d="M808 3083 c6 -2 10 -8 8 -12 -3 -4 4 -12 14 -19 17 -10 18 -9 13 6
-7 19 -23 32 -38 31 -5 0 -4 -3 3 -6z"/>
<path d="M1917 3058 c8 -33 53 -65 53 -38 0 6 -9 10 -20 10 -15 0 -20 7 -20
25 0 14 -4 25 -9 25 -5 0 -7 -10 -4 -22z"/>
<path d="M1965 3060 c3 -5 8 -10 11 -10 2 0 4 5 4 10 0 6 -5 10 -11 10 -5 0
-7 -4 -4 -10z"/>
<path d="M3371 3033 c13 -16 26 -30 28 -33 2 -3 0 6 -4 20 -8 25 -22 40 -39
40 -5 0 1 -12 15 -27z"/>
<path d="M860 3035 c0 -8 4 -15 10 -15 5 0 7 7 4 15 -4 8 -8 15 -10 15 -2 0
-4 -7 -4 -15z"/>
<path d="M1017 3036 c-10 -26 -8 -43 3 -26 8 12 10 12 10 1 0 -8 2 -12 5 -9 3
3 2 15 -3 28 -8 20 -9 21 -15 6z"/>
<path d="M2091 3034 c-1 -27 28 -114 39 -114 5 0 3 15 -5 33 -8 19 -12 45 -9
58 4 21 3 22 -5 4 -8 -18 -9 -17 -13 10 -3 18 -6 22 -7 9z"/>
<path d="M2131 3034 c0 -11 3 -14 6 -6 3 7 2 16 -1 19 -3 4 -6 -2 -5 -13z"/>
<path d="M2866 3035 c-9 -26 -7 -32 5 -12 6 10 9 21 6 23 -2 3 -7 -2 -11 -11z"/>
<path d="M931 2976 c0 -35 3 -56 8 -50 4 5 5 32 1 59 l-7 50 -2 -59z"/>
<path d="M3520 3022 c0 -12 19 -26 26 -19 2 2 -2 10 -11 17 -9 8 -15 8 -15 2z"/>
<path d="M825 2955 c0 -35 3 -58 7 -52 10 16 10 104 1 110 -5 3 -8 -23 -8 -58z"/>
<path d="M1937 2983 c8 -23 33 -60 33 -50 0 11 -29 67 -35 67 -2 0 -2 -8 2
-17z"/>
<path d="M2130 2988 c0 -9 5 -20 10 -23 13 -8 13 5 0 25 -8 13 -10 13 -10 -2z"/>
<path d="M2842 2971 c-17 -48 -14 -63 4 -22 8 19 13 39 11 45 -2 6 -9 -5 -15
-23z"/>
<path d="M3413 2992 c-8 -5 -6 -15 8 -32 15 -20 18 -21 13 -5 -4 11 -4 17 1
13 4 -4 14 0 22 8 9 8 12 18 8 22 -4 4 -10 1 -12 -6 -3 -9 -9 -10 -17 -3 -6 5
-17 7 -23 3z"/>
<path d="M4483 2960 c0 -25 2 -35 4 -22 2 12 2 32 0 45 -2 12 -4 2 -4 -23z"/>
<path d="M2080 2962 c0 -17 4 -34 10 -37 6 -4 7 6 3 27 -8 44 -13 48 -13 10z"/>
<path d="M1989 2953 c-1 -5 -3 -23 -5 -41 -2 -30 -1 -32 11 -15 8 10 10 19 5
21 -4 2 -6 12 -3 22 3 11 3 20 -1 20 -3 0 -7 -3 -7 -7z"/>
<path d="M3012 2940 c0 -14 2 -19 5 -12 2 6 2 18 0 25 -3 6 -5 1 -5 -13z"/>
<path d="M3657 2953 c-15 -14 -6 -25 10 -12 15 12 16 12 10 -3 -4 -11 -2 -17
6 -15 7 1 11 -8 10 -23 -2 -21 -1 -22 8 -8 7 13 5 24 -7 43 -17 26 -26 30 -37
18z"/>
<path d="M3460 2925 c0 -8 5 -15 10 -15 6 0 10 7 10 15 0 8 -4 15 -10 15 -5 0
-10 -7 -10 -15z"/>
<path d="M3498 2915 c-21 -27 -23 -39 -7 -29 7 4 10 1 7 -7 -2 -7 3 -22 13
-34 9 -11 28 -33 41 -49 19 -22 27 -26 33 -16 5 8 4 11 -3 6 -6 -3 -16 2 -21
13 -13 24 -14 42 -1 21 5 -8 12 -11 15 -8 12 12 -6 29 -25 23 -23 -7 -43 25
-33 51 4 12 3 15 -5 10 -16 -9 -15 7 0 22 6 6 10 14 7 16 -2 2 -12 -6 -21 -19z"/>
<path d="M972 2900 c0 -14 2 -19 5 -12 2 6 2 18 0 25 -3 6 -5 1 -5 -13z"/>
<path d="M1193 2880 c0 -25 2 -35 4 -22 2 12 2 32 0 45 -2 12 -4 2 -4 -23z"/>
<path d="M1262 2890 c0 -14 2 -19 5 -12 2 6 2 18 0 25 -3 6 -5 1 -5 -13z"/>
<path d="M2805 2900 c-3 -5 -1 -10 4 -10 6 0 11 5 11 10 0 6 -2 10 -4 10 -3 0
-8 -4 -11 -10z"/>
<path d="M272 2870 c0 -19 2 -27 5 -17 2 9 2 25 0 35 -3 9 -5 1 -5 -18z"/>
<path d="M841 2884 c0 -11 3 -14 6 -6 3 7 2 16 -1 19 -3 4 -6 -2 -5 -13z"/>
<path d="M1021 2884 c0 -11 3 -14 6 -6 3 7 2 16 -1 19 -3 4 -6 -2 -5 -13z"/>
<path d="M2035 2890 c3 -5 11 -10 16 -10 6 0 7 5 4 10 -3 6 -11 10 -16 10 -6
0 -7 -4 -4 -10z"/>
<path d="M2171 2877 c-13 -20 -13 -21 2 -8 10 8 17 9 17 3 0 -6 -4 -14 -10
-17 -12 -8 -13 -25 -1 -25 12 0 22 41 13 56 -6 10 -11 8 -21 -9z"/>
<path d="M1166 2872 c-2 -4 -1 -32 4 -62 l8 -55 1 63 c1 59 -2 72 -13 54z"/>
<path d="M2780 2858 c-12 -22 -12 -22 6 -6 10 10 15 20 12 24 -4 3 -12 -5 -18
-18z"/>
<path d="M990 2856 c0 -7 -7 -19 -15 -26 -13 -11 -13 -15 -3 -22 10 -7 9 -11
-4 -19 -10 -5 -18 -14 -18 -19 0 -6 12 0 26 12 14 13 20 24 15 26 -6 2 -11 8
-11 14 0 6 6 8 13 5 10 -4 13 2 9 19 -5 26 -12 32 -12 10z"/>
<path d="M2028 2837 c9 -16 25 -33 36 -39 13 -7 16 -7 11 1 -4 7 -1 18 5 26
10 11 7 13 -14 9 -14 -2 -26 0 -26 6 0 5 9 10 20 10 11 0 20 4 20 8 0 4 -15 8
-34 8 l-35 0 17 -29z"/>
<path d="M3025 2839 c-4 -17 -3 -35 1 -39 5 -5 10 9 11 31 1 47 -3 50 -12 8z"/>
<path d="M3680 2861 c0 -6 4 -13 10 -16 6 -3 7 1 4 9 -7 18 -14 21 -14 7z"/>
<path d="M3710 2855 c7 -8 17 -15 22 -15 5 0 3 7 -6 15 -8 8 -18 15 -22 15 -3
0 -1 -7 6 -15z"/>
<path d="M4281 2833 c-1 -50 18 -100 31 -81 4 7 7 22 7 33 -1 16 -2 15 -8 -5
-7 -21 -9 -18 -15 25 -10 70 -14 77 -15 28z"/>
<path d="M807 2846 c-4 -10 0 -12 14 -9 22 6 26 23 5 23 -8 0 -16 -6 -19 -14z"/>
<path d="M1273 2815 c0 -27 2 -38 4 -22 2 15 2 37 0 50 -2 12 -4 0 -4 -28z"/>
<path d="M2208 2845 c-4 -4 -4 -13 -2 -20 3 -7 -3 -15 -13 -18 -14 -3 -10 -8
17 -20 43 -19 66 -5 34 22 -11 9 -23 22 -25 29 -2 7 -7 10 -11 7z m39 -52 c3
-7 -3 -9 -16 -6 -12 3 -21 10 -21 15 0 13 32 6 37 -9z"/>
<path d="M3760 2825 c19 -50 30 -64 50 -62 18 1 18 3 3 19 -8 10 -20 15 -26
11 -6 -4 -8 0 -4 11 4 10 3 15 -3 11 -6 -3 -10 1 -10 9 0 8 -4 18 -10 21 -7 4
-7 -3 0 -20z m45 -45 c3 -5 1 -10 -4 -10 -6 0 -11 5 -11 10 0 6 2 10 4 10 3 0
8 -4 11 -10z"/>
<path d="M300 2829 c0 -5 5 -7 10 -4 6 3 10 8 10 11 0 2 -4 4 -10 4 -5 0 -10
-5 -10 -11z"/>
<path d="M272 2805 c0 -16 2 -22 5 -12 2 9 2 23 0 30 -3 6 -5 -1 -5 -18z"/>
<path d="M2115 2820 c-3 -5 1 -10 9 -10 9 0 16 5 16 10 0 6 -4 10 -9 10 -6 0
-13 -4 -16 -10z"/>
<path d="M2748 2816 c-10 -7 -15 -16 -11 -19 3 -4 -1 -7 -10 -7 -9 0 -18 -4
-21 -9 -14 -21 34 3 49 25 18 27 17 29 -7 10z"/>
<path d="M252 2785 c0 -11 4 -31 8 -45 6 -20 8 -21 8 -5 0 11 -4 31 -8 45 -6
20 -8 21 -8 5z"/>
<path d="M2145 2790 c-4 -7 2 -14 14 -17 12 -3 21 -10 21 -15 0 -6 -8 -7 -17
-4 -15 5 -15 4 1 -9 14 -11 16 -15 5 -15 -20 -1 32 -29 54 -30 21 0 23 19 1
27 -13 5 -13 7 -2 14 8 6 9 9 1 9 -6 0 -25 11 -41 25 -20 17 -33 22 -37 15z
m62 -46 c-3 -3 -12 -4 -19 -1 -8 3 -5 6 6 6 11 1 17 -2 13 -5z m13 -24 c13 -9
13 -10 0 -10 -8 0 -22 5 -30 10 -13 9 -13 10 0 10 8 0 22 -5 30 -10z"/>
<path d="M1151 2774 c0 -11 3 -14 6 -6 3 7 2 16 -1 19 -3 4 -6 -2 -5 -13z"/>
<path d="M2098 2783 c6 -2 12 -11 12 -18 0 -8 10 -19 23 -25 20 -10 20 -10 5
3 -10 8 -18 22 -18 31 0 9 -8 16 -17 15 -11 0 -13 -3 -5 -6z"/>
<path d="M790 2757 c14 -15 34 -27 45 -28 11 0 15 -3 7 -6 -19 -7 -64 6 -57
17 9 15 -4 12 -21 -4 -12 -12 -8 -15 25 -21 42 -7 105 7 134 29 17 13 16 14
-7 12 -13 0 -24 -5 -23 -11 1 -5 -9 -11 -23 -12 -23 -2 -23 -2 -5 7 16 8 14 9
-12 4 -17 -3 -34 0 -38 5 -3 6 -16 16 -28 23 -20 10 -20 9 3 -15z"/>
<path d="M2277 2769 c7 -7 15 -10 18 -7 3 3 -2 9 -12 12 -14 6 -15 5 -6 -5z"/>
<path d="M1815 2757 c-13 -7 -20 -20 -18 -32 3 -18 3 -18 -7 -2 -6 9 -21 17
-33 16 -12 0 -16 -3 -9 -6 10 -4 9 -8 -5 -19 -17 -12 -16 -13 5 -7 12 3 22 10
22 17 1 6 7 0 14 -13 12 -22 14 -22 21 -5 5 11 7 25 6 33 -1 7 2 10 7 7 6 -3
12 1 16 9 6 18 7 18 -19 2z"/>
<path d="M2685 2760 c6 -9 4 -12 -7 -8 -9 4 -15 0 -15 -8 0 -18 11 -18 26 0 9
11 9 16 0 22 -8 5 -9 3 -4 -6z"/>
<path d="M3586 2762 c-2 -4 -1 -14 4 -22 7 -11 9 -9 7 8 -1 24 -3 26 -11 14z"/>
<path d="M384 2749 c-2 -4 2 -9 9 -11 14 -6 37 1 37 11 0 9 -40 9 -46 0z"/>
<path d="M451 2748 c-1 -10 -5 -18 -11 -18 -5 0 -10 -5 -10 -12 0 -8 6 -7 16
4 9 9 14 22 11 30 -4 9 -6 7 -6 -4z"/>
<path d="M720 2740 c-19 -11 -31 -19 -27 -20 11 0 67 29 67 35 0 7 -1 7 -40
-15z"/>
<path d="M1340 2741 c0 -11 5 -23 10 -26 6 -4 10 5 10 19 0 14 -4 26 -10 26
-5 0 -10 -9 -10 -19z"/>
<path d="M3620 2751 c0 -5 6 -14 14 -20 12 -10 13 -8 9 8 -5 21 -23 30 -23 12z"/>
<path d="M2293 2736 c15 -5 27 -13 27 -17 0 -3 12 -4 27 -1 l27 5 -25 10 c-13
5 -37 10 -54 12 l-30 2 28 -11z"/>
<path d="M2995 2740 c3 -5 8 -10 11 -10 2 0 4 5 4 10 0 6 -5 10 -11 10 -5 0
-7 -4 -4 -10z"/>
<path d="M3844 2718 c2 -28 7 -33 29 -35 34 -2 34 6 -2 40 l-29 27 2 -32z m46
-21 c0 -2 -8 -3 -18 -3 -10 0 -19 6 -19 13 0 8 6 9 19 2 10 -5 18 -11 18 -12z"/>
<path d="M1160 2711 c0 -26 15 -35 17 -11 1 11 -2 22 -8 25 -5 4 -9 -3 -9 -14z"/>
<path d="M1700 2720 c0 -5 4 -10 9 -10 6 0 13 5 16 10 3 6 -1 10 -9 10 -9 0
-16 -4 -16 -10z"/>
<path d="M2575 2720 c-3 -5 -2 -10 4 -10 5 0 13 5 16 10 3 6 2 10 -4 10 -5 0
-13 -4 -16 -10z"/>
<path d="M3202 2705 c0 -16 2 -22 5 -12 2 9 2 23 0 30 -3 6 -5 -1 -5 -18z"/>
<path d="M3611 2723 c0 -4 4 -17 9 -28 8 -19 9 -19 9 2 1 12 -3 25 -9 28 -5 3
-10 3 -9 -2z"/>
<path d="M3671 2714 c0 -11 3 -14 6 -6 3 7 2 16 -1 19 -3 4 -6 -2 -5 -13z"/>
<path d="M4281 2720 c-1 -21 16 -46 26 -37 4 5 3 11 -3 15 -6 4 -14 14 -17 22
-5 13 -5 13 -6 0z"/>
<path d="M282 2700 c0 -14 2 -19 5 -12 2 6 2 18 0 25 -3 6 -5 1 -5 -13z"/>
<path d="M650 2710 c-8 -5 -10 -10 -5 -10 6 0 17 5 25 10 8 5 11 10 5 10 -5 0
-17 -5 -25 -10z"/>
<path d="M710 2710 c-9 -6 -10 -10 -3 -10 6 0 15 5 18 10 8 12 4 12 -15 0z"/>
<path d="M1674 2706 c1 -8 5 -18 8 -22 4 -3 5 1 4 10 -1 8 -5 18 -8 22 -4 3
-5 -1 -4 -10z"/>
<path d="M2388 2713 c6 -2 18 -2 25 0 6 3 1 5 -13 5 -14 0 -19 -2 -12 -5z"/>
<path d="M2530 2709 l-25 -7 28 -1 c16 -1 26 -5 22 -11 -3 -6 1 -7 10 -3 9 3
13 9 8 12 -4 3 -10 9 -13 12 -3 3 -16 2 -30 -2z"/>
<path d="M4480 2700 c0 -11 4 -20 9 -20 5 0 7 9 4 20 -3 11 -7 20 -9 20 -2 0
-4 -9 -4 -20z"/>
<path d="M310 2698 c0 -14 8 -18 38 -17 34 2 34 2 7 6 -16 3 -33 10 -37 16 -5
8 -8 6 -8 -5z"/>
<path d="M411 2694 c0 -11 3 -14 6 -6 3 7 2 16 -1 19 -3 4 -6 -2 -5 -13z"/>
<path d="M451 2694 c0 -11 3 -14 6 -6 3 7 2 16 -1 19 -3 4 -6 -2 -5 -13z"/>
<path d="M760 2700 c0 -5 5 -10 10 -10 6 0 10 5 10 10 0 6 -4 10 -10 10 -5 0
-10 -4 -10 -10z"/>
<path d="M2443 2703 c9 -2 23 -2 30 0 6 3 -1 5 -18 5 -16 0 -22 -2 -12 -5z"/>
<path d="M240 2690 c0 -5 5 -10 10 -10 6 0 10 5 10 10 0 6 -4 10 -10 10 -5 0
-10 -4 -10 -10z"/>
<path d="M470 2693 c0 -5 22 -8 49 -8 27 0 47 3 44 8 -2 4 -24 7 -49 7 -24 0
-44 -3 -44 -7z"/>
<path d="M588 2693 c6 -2 18 -2 25 0 6 3 1 5 -13 5 -14 0 -19 -2 -12 -5z"/>
<path d="M1350 2690 c-13 -8 -12 -10 3 -10 9 0 17 5 17 10 0 12 -1 12 -20 0z"/>
<path d="M1380 2690 c0 -5 5 -10 10 -10 6 0 10 5 10 10 0 6 -4 10 -10 10 -5 0
-10 -4 -10 -10z"/>
<path d="M1430 2692 c0 -4 17 -6 38 -4 58 5 62 10 10 11 -27 1 -48 -3 -48 -7z"/>
<path d="M1585 2690 c3 -5 12 -7 20 -3 21 7 19 13 -6 13 -11 0 -18 -4 -14 -10z"/>
<path d="M1756 2688 c3 -5 10 -6 15 -3 13 9 11 12 -6 12 -8 0 -12 -4 -9 -9z"/>
<path d="M2343 2680 c15 -12 38 -19 59 -19 33 2 33 2 3 6 -16 3 -38 11 -49 19
-31 22 -42 17 -13 -6z"/>
<path d="M2398 2693 c7 -3 16 -2 19 1 4 3 -2 6 -13 5 -11 0 -14 -3 -6 -6z"/>
<path d="M3640 2690 c0 -5 5 -10 10 -10 6 0 10 5 10 10 0 6 -4 10 -10 10 -5 0
-10 -4 -10 -10z"/>
<path d="M1198 2683 c7 -3 16 -2 19 1 4 3 -2 6 -13 5 -11 0 -14 -3 -6 -6z"/>
<path d="M1263 2683 c9 -2 25 -2 35 0 9 3 1 5 -18 5 -19 0 -27 -2 -17 -5z"/>
<path d="M2438 2683 c6 -2 18 -2 25 0 6 3 1 5 -13 5 -14 0 -19 -2 -12 -5z"/>
<path d="M503 2494 c13 -32 27 -59 33 -61 6 -2 21 20 33 48 24 58 25 69 11 69
-5 0 -10 -5 -10 -10 0 -6 -7 -27 -16 -48 l-16 -37 -16 44 c-10 24 -22 46 -29
48 -7 3 -3 -18 10 -53z"/>
<path d="M750 2490 c0 -33 3 -60 8 -60 4 0 7 27 8 60 0 33 -3 60 -8 60 -4 0
-8 -27 -8 -60z"/>
<path d="M930 2490 c0 -33 4 -60 10 -60 6 0 10 9 10 20 0 11 7 20 15 20 8 0
20 -9 27 -20 7 -11 19 -20 27 -20 12 0 11 3 -2 18 -13 14 -13 20 -2 35 25 35
0 67 -52 67 l-33 0 0 -60z m73 26 c7 -17 -11 -36 -35 -36 -13 0 -18 8 -18 25
0 20 5 25 24 25 13 0 26 -6 29 -14z"/>
<path d="M1170 2540 c0 -5 9 -10 20 -10 17 0 20 -7 20 -50 0 -27 5 -50 10 -50
6 0 10 23 10 50 0 43 3 50 20 50 11 0 20 5 20 10 0 6 -22 10 -50 10 -27 0 -50
-4 -50 -10z"/>
<path d="M1410 2512 c0 -21 7 -48 16 -60 17 -25 56 -29 74 -7 17 21 26 105 11
105 -6 0 -11 -15 -11 -34 0 -49 -9 -66 -35 -66 -26 0 -35 17 -35 66 0 19 -4
34 -10 34 -5 0 -10 -17 -10 -38z"/>
<path d="M1694 2494 c-14 -31 -22 -59 -19 -63 4 -3 11 2 16 12 13 22 58 22 75
0 23 -33 22 -8 -3 50 -14 31 -30 57 -35 57 -5 0 -20 -25 -34 -56z m56 -16 c0
-4 -9 -8 -20 -8 -21 0 -24 8 -13 36 6 16 7 16 20 -2 7 -10 13 -21 13 -26z"/>
<path d="M1940 2492 l0 -62 37 0 c38 0 36 15 -2 22 -16 3 -20 11 -20 45 -1 23
-4 45 -8 49 -4 4 -7 -20 -7 -54z"/>
<path d="M2347 2493 c-25 -58 -26 -83 -3 -50 17 22 62 22 75 0 5 -10 12 -15
16 -12 9 9 -38 119 -51 119 -6 0 -23 -26 -37 -57z m53 -10 c0 -7 -9 -13 -20
-13 -23 0 -24 4 -9 32 9 17 13 18 20 7 5 -8 9 -20 9 -26z"/>
<path d="M2601 2537 c-16 -20 -4 -46 25 -53 13 -3 24 -13 24 -21 0 -12 -7 -14
-30 -9 -31 6 -42 -7 -14 -18 26 -10 51 -7 63 8 17 20 4 43 -31 55 -35 12 -28
35 9 28 15 -3 22 0 20 7 -5 17 -52 19 -66 3z"/>
<path d="M2843 2544 c-24 -10 -14 -43 17 -59 43 -22 39 -39 -7 -32 -35 6 -36
5 -19 -8 22 -16 36 -18 60 -9 26 10 18 42 -14 59 -40 21 -39 39 1 31 22 -4 29
-2 27 7 -5 13 -44 19 -65 11z"/>
<path d="M3070 2490 c0 -33 4 -60 10 -60 6 0 10 27 10 60 0 33 -4 60 -10 60
-6 0 -10 -27 -10 -60z"/>
<path d="M3261 2536 c-18 -21 -7 -44 24 -52 38 -9 33 -38 -5 -30 -31 6 -42 -7
-14 -18 29 -11 53 -6 63 12 12 23 3 38 -32 51 -34 13 -26 35 10 28 15 -3 22 0
20 7 -6 17 -52 19 -66 2z"/>
<path d="M3480 2540 c0 -5 7 -10 15 -10 11 0 15 -12 15 -44 0 -25 5 -48 10
-51 6 -4 10 13 10 44 0 44 3 51 20 51 11 0 20 5 20 10 0 6 -20 10 -45 10 -25
0 -45 -4 -45 -10z"/>
<path d="M3734 2494 c-14 -31 -22 -59 -19 -63 4 -3 11 2 16 12 13 22 58 22 75
0 23 -33 22 -8 -3 50 -14 31 -30 57 -35 57 -5 0 -20 -25 -34 -56z m56 -16 c0
-4 -9 -8 -20 -8 -21 0 -24 8 -13 36 6 16 7 16 20 -2 7 -10 13 -21 13 -26z"/>
<path d="M3980 2490 c0 -68 17 -82 22 -18 l3 42 29 -42 c16 -23 33 -42 37 -42
5 0 9 28 9 63 0 40 -3 57 -9 48 -5 -8 -7 -28 -5 -45 l3 -31 -37 43 c-20 23
-40 42 -44 42 -5 0 -8 -27 -8 -60z"/>
<path d="M4230 2540 c0 -5 9 -10 20 -10 17 0 20 -7 20 -50 0 -27 5 -50 10 -50
6 0 10 23 10 50 0 43 3 50 20 50 11 0 20 5 20 10 0 6 -22 10 -50 10 -27 0 -50
-4 -50 -10z"/>
<path d="M740 2266 c0 -2 13 -6 29 -8 17 -2 28 -1 25 4 -5 8 -54 12 -54 4z"/>
<path d="M616 2249 c2 -4 -7 -14 -21 -23 -14 -9 -25 -21 -25 -26 0 -6 8 -2 18
8 9 9 28 24 41 32 22 15 22 16 3 16 -11 0 -19 -3 -16 -7z"/>
<path d="M560 2229 c-17 -13 -18 -17 -5 -10 33 17 51 31 40 31 -5 0 -21 -10
-35 -21z"/>
<path d="M850 2236 c0 -8 7 -17 16 -20 14 -5 15 -4 4 9 -15 18 0 20 20 3 12
-11 12 -10 1 5 -16 20 -41 23 -41 3z"/>
<path d="M1240 2240 c0 -5 5 -10 11 -10 5 0 7 5 4 10 -3 6 -8 10 -11 10 -2 0
-4 -4 -4 -10z"/>
<path d="M1370 2239 l-95 -5 88 -2 c62 -1 87 -6 87 -14 0 -10 2 -10 9 0 7 11
9 11 14 -2 3 -8 1 -16 -6 -19 -6 -2 -3 -6 7 -10 16 -6 17 -3 11 20 -3 16 -9
30 -13 33 -4 3 -50 2 -102 -1z"/>
<path d="M2120 2241 c0 -8 -8 -23 -17 -33 -16 -18 -16 -18 0 -12 11 4 17 1 17
-7 0 -12 2 -12 9 -1 4 8 11 13 15 13 6 0 15 2 46 12 8 3 3 6 -12 6 -16 1 -28
-5 -29 -11 0 -7 -7 1 -14 17 -8 17 -14 24 -15 16z"/>
<path d="M2285 2240 l-50 -7 53 -1 c29 -1 52 2 52 8 0 6 -1 9 -2 8 -2 0 -25
-4 -53 -8z"/>
<path d="M2460 2239 c0 -5 11 -9 25 -9 14 0 25 2 25 4 0 2 -11 6 -25 8 -14 3
-25 1 -25 -3z"/>
<path d="M2772 2231 c14 -20 25 -23 78 -23 33 0 64 3 68 7 4 4 -23 5 -61 3
-37 -1 -67 0 -67 5 0 4 24 8 53 9 l52 1 -50 6 c-27 3 -52 2 -53 -2 -2 -4 -11
-2 -20 5 -14 12 -14 11 0 -11z"/>
<path d="M2966 2238 c2 -3 -4 -9 -13 -12 -10 -3 0 -2 22 1 22 3 48 6 58 7 9 0
17 3 17 7 0 4 -20 6 -44 5 -24 0 -42 -4 -40 -8z"/>
<path d="M3200 2240 c-88 -7 -85 -7 38 -5 73 1 135 5 139 8 7 8 -30 7 -177 -3z"/>
<path d="M3432 2239 c18 -12 48 -11 48 0 0 5 -14 9 -31 9 -20 -1 -26 -4 -17
-9z"/>
<path d="M3560 2239 c-25 -4 -58 -11 -75 -15 -25 -6 -27 -8 -10 -14 12 -4 25
-1 33 7 7 7 32 13 55 13 27 0 37 -3 29 -9 -11 -7 -11 -9 2 -14 12 -5 16 0 16
18 0 14 -1 24 -2 24 -2 -1 -23 -5 -48 -10z"/>
<path d="M4347 2244 c-6 -10 9 -42 16 -34 3 3 1 14 -3 24 -3 11 -9 15 -13 10z"/>
<path d="M4370 2239 c0 -5 19 -9 42 -9 23 0 39 3 36 6 -10 9 -78 12 -78 3z"/>
<path d="M915 2231 c3 -6 -3 -14 -12 -20 -10 -6 -13 -11 -7 -11 5 0 18 6 28
13 17 13 18 14 2 20 -10 4 -14 3 -11 -2z"/>
<path d="M2173 2233 c9 -2 23 -2 30 0 6 3 -1 5 -18 5 -16 0 -22 -2 -12 -5z"/>
<path d="M2583 2233 c33 -2 55 -8 52 -14 -4 -5 -1 -9 4 -9 6 0 12 6 12 13 1 6
5 -1 9 -18 l8 -30 1 33 1 32 -72 -2 c-71 -2 -71 -2 -15 -5z"/>
<path d="M3798 2233 c6 -2 18 -2 25 0 6 3 1 5 -13 5 -14 0 -19 -2 -12 -5z"/>
<path d="M3858 2233 c12 -2 32 -2 45 0 12 2 2 4 -23 4 -25 0 -35 -2 -22 -4z"/>
<path d="M4483 2233 c15 -2 39 -2 55 0 15 2 2 4 -28 4 -30 0 -43 -2 -27 -4z"/>
<path d="M940 2207 c-21 -17 -21 -45 1 -81 16 -26 19 -28 21 -11 0 11 0 28 0
38 -1 11 2 16 10 11 7 -4 8 -3 4 5 -4 6 -12 9 -17 6 -5 -4 -9 1 -9 10 0 12 5
15 16 11 14 -5 15 -4 4 9 -7 8 -13 15 -14 15 0 0 -8 -6 -16 -13z m14 -53 c9
-24 7 -27 -9 -10 -17 17 -19 26 -6 26 5 0 12 -7 15 -16z"/>
<path d="M1303 2213 c26 -2 67 -2 90 0 23 2 2 3 -48 3 -49 0 -68 -1 -42 -3z"/>
<path d="M2477 2213 c-4 -3 -7 -11 -7 -17 0 -7 3 -7 8 1 4 6 25 13 47 16 l40
4 -41 1 c-22 1 -44 -1 -47 -5z"/>
<path d="M3100 2212 c0 -4 17 -6 38 -4 64 6 69 10 15 11 -29 0 -53 -3 -53 -7z"/>
<path d="M3228 2213 c7 -3 16 -2 19 1 4 3 -2 6 -13 5 -11 0 -14 -3 -6 -6z"/>
<path d="M3758 2213 c18 -2 45 -2 60 0 15 2 0 4 -33 4 -33 0 -45 -2 -27 -4z"/>
<path d="M3925 2211 c-3 -5 -1 -12 5 -16 5 -3 10 1 10 9 0 18 -6 21 -15 7z"/>
<path d="M4408 2213 c6 -2 18 -2 25 0 6 3 1 5 -13 5 -14 0 -19 -2 -12 -5z"/>
<path d="M504 2189 c-3 -6 1 -18 11 -27 16 -16 17 -16 6 6 -7 12 -8 22 -2 22
5 0 11 -6 14 -12 2 -7 8 -9 13 -5 5 4 2 12 -6 17 -20 13 -27 12 -36 -1z"/>
<path d="M1243 2139 c-1 -33 1 -58 4 -55 9 8 13 116 5 116 -5 0 -9 -27 -9 -61z"/>
<path d="M1351 2184 c0 -11 3 -14 6 -6 3 7 2 16 -1 19 -3 4 -6 -2 -5 -13z"/>
<path d="M2217 2186 c-6 -16 2 -28 14 -20 12 7 11 34 0 34 -5 0 -11 -6 -14
-14z"/>
<path d="M2643 2155 c0 -27 2 -38 4 -22 2 15 2 37 0 50 -2 12 -4 0 -4 -28z"/>
<path d="M3546 2191 c-4 -5 4 -7 16 -4 19 4 20 3 8 -6 -18 -13 -1 -15 18 -2
11 7 10 10 -3 15 -23 8 -33 8 -39 -3z"/>
<path d="M4405 2190 c3 -5 8 -10 11 -10 2 0 4 5 4 10 0 6 -5 10 -11 10 -5 0
-7 -4 -4 -10z"/>
<path d="M4493 2160 c0 -25 2 -35 4 -22 2 12 2 32 0 45 -2 12 -4 2 -4 -23z"/>
<path d="M4511 2184 c0 -11 3 -14 6 -6 3 7 2 16 -1 19 -3 4 -6 -2 -5 -13z"/>
<path d="M4542 2180 c0 -14 2 -19 5 -12 2 6 2 18 0 25 -3 6 -5 1 -5 -13z"/>
<path d="M993 2165 c0 -14 2 -22 6 -18 3 4 10 10 14 14 4 3 2 11 -6 18 -12 9
-14 7 -14 -14z"/>
<path d="M1321 2174 c0 -11 3 -14 6 -6 3 7 2 16 -1 19 -3 4 -6 -2 -5 -13z"/>
<path d="M1449 2173 c-8 -46 -6 -103 3 -103 6 0 8 9 5 20 -3 10 1 27 9 37 7
10 13 25 13 33 0 9 -6 5 -15 -10 l-15 -25 6 28 c3 15 3 27 0 27 -3 0 -6 -3 -6
-7z"/>
<path d="M2086 2171 c-4 -7 -5 -15 -2 -18 9 -9 19 4 14 18 -4 11 -6 11 -12 0z"/>
<path d="M1495 2150 c-4 -11 -2 -27 4 -34 6 -7 9 -22 6 -34 -2 -14 1 -22 10
-22 9 0 11 8 8 23 -5 22 -5 22 11 2 12 -15 11 -8 -5 30 -25 61 -26 62 -34 35z
m19 -15 c3 -8 1 -15 -4 -15 -6 0 -10 7 -10 15 0 8 2 15 4 15 2 0 6 -7 10 -15z"/>
<path d="M2130 2158 c0 -9 5 -20 10 -23 6 -3 11 -16 11 -28 1 -17 2 -18 6 -4
2 9 11 17 19 17 8 0 14 5 14 11 0 6 -8 9 -17 7 -10 -2 -23 5 -30 17 -10 17
-12 17 -13 3z"/>
<path d="M4405 2150 c-8 -25 -3 -33 17 -28 11 2 12 8 2 27 l-12 23 -7 -22z"/>
<path d="M477 2147 c-3 -8 3 -14 15 -14 16 -2 17 1 8 13 -15 17 -17 17 -23 1z"/>
<path d="M1300 2148 c0 -9 5 -20 11 -23 17 -11 18 -2 3 19 -12 17 -14 17 -14
4z"/>
<path d="M3130 2150 c0 -5 12 -10 26 -10 14 0 23 4 19 10 -3 6 -15 10 -26 10
-10 0 -19 -4 -19 -10z"/>
<path d="M3722 2135 c0 -16 2 -22 5 -12 2 9 2 23 0 30 -3 6 -5 -1 -5 -18z"/>
<path d="M3741 2144 c0 -11 3 -14 6 -6 3 7 2 16 -1 19 -3 4 -6 -2 -5 -13z"/>
<path d="M4348 2137 c-3 -19 -2 -25 4 -19 6 6 8 18 6 28 -3 14 -5 12 -10 -9z"/>
<path d="M540 2140 c0 -5 5 -10 10 -10 6 0 10 5 10 10 0 6 -4 10 -10 10 -5 0
-10 -4 -10 -10z"/>
<path d="M1020 2139 c-12 -8 -11 -9 5 -7 13 2 19 -2 17 -12 -2 -8 0 -12 4 -8
5 6 64 -56 64 -68 0 -8 -9 -3 -26 14 -17 16 -18 16 -11 0 12 -32 -13 -19 -28
15 -11 23 -13 25 -9 7 8 -33 39 -59 64 -53 29 8 25 22 -23 75 -33 38 -45 46
-57 37z"/>
<path d="M2473 2133 c1 -15 7 -18 26 -15 17 4 21 7 11 10 -8 3 -20 9 -27 14
-8 7 -11 4 -10 -9z"/>
<path d="M2673 2105 c0 -27 2 -38 4 -22 2 15 2 37 0 50 -2 12 -4 0 -4 -28z"/>
<path d="M3220 2140 c-9 -6 -10 -10 -3 -10 6 0 15 5 18 10 8 12 4 12 -15 0z"/>
<path d="M4371 2134 c0 -11 3 -14 6 -6 3 7 2 16 -1 19 -3 4 -6 -2 -5 -13z"/>
<path d="M4524 2135 c-5 -12 -7 -167 -4 -365 l6 -345 4 350 c2 209 6 318 10
270 l6 -80 1 75 c1 41 -2 84 -6 95 -8 19 -8 19 -17 0z"/>
<path d="M975 2118 c-9 -27 -8 -44 4 -73 13 -32 27 -45 51 -45 11 0 -13 23
-37 34 -8 4 -13 56 -5 56 5 0 12 -10 15 -22 4 -12 8 -20 11 -17 10 10 -7 49
-21 49 -9 0 -13 6 -9 15 3 8 3 15 0 15 -2 0 -7 -6 -9 -12z"/>
<path d="M2120 2120 c0 -5 5 -10 11 -10 5 0 7 5 4 10 -3 6 -8 10 -11 10 -2 0
-4 -4 -4 -10z"/>
<path d="M2284 1795 c0 -176 2 -247 3 -157 2 90 2 234 0 320 -1 86 -3 13 -3
-163z"/>
<path d="M2503 2040 c0 -41 2 -58 4 -37 2 20 2 54 0 75 -2 20 -4 3 -4 -38z"/>
<path d="M3164 1800 c0 -173 2 -244 3 -157 2 86 2 228 0 315 -1 86 -3 15 -3
-158z"/>
<path d="M461 2084 c0 -11 3 -14 6 -6 3 7 2 16 -1 19 -3 4 -6 -2 -5 -13z"/>
<path d="M1326 2091 c-4 -5 -1 -11 4 -13 6 -2 12 -13 13 -25 0 -12 4 -20 8
-17 7 4 -9 64 -16 64 -2 0 -6 -4 -9 -9z"/>
<path d="M2036 2047 c-10 -29 -21 -59 -24 -67 -3 -10 -2 -11 5 -5 11 12 47
114 41 120 -2 2 -12 -19 -22 -48z"/>
<path d="M4358 1995 c2 -60 6 -112 8 -114 8 -8 2 175 -6 199 -4 14 -5 -24 -2
-85z"/>
<path d="M2129 2068 c-2 -13 -2 -151 1 -308 l6 -285 1 308 c1 169 0 307 -1
307 -2 0 -5 -10 -7 -22z"/>
<path d="M565 2069 c-4 -6 -5 -12 -2 -15 2 -3 7 2 10 11 7 17 1 20 -8 4z"/>
<path d="M2652 2060 c0 -14 2 -19 5 -12 2 6 2 18 0 25 -3 6 -5 1 -5 -13z"/>
<path d="M4386 2048 c-3 -13 -5 -39 -5 -58 1 -27 3 -22 9 20 9 58 7 77 -4 38z"/>
<path d="M4496 2061 c-4 -7 -5 -15 -2 -18 9 -9 19 4 14 18 -4 11 -6 11 -12 0z"/>
<path d="M580 2051 c0 -4 16 -22 35 -41 19 -19 35 -30 35 -26 0 4 -16 22 -35
40 -19 19 -35 30 -35 27z"/>
<path d="M466 2024 c-4 -14 -5 -28 -3 -31 3 -2 8 8 11 23 4 14 5 28 3 31 -3 2
-8 -8 -11 -23z"/>
<path d="M1468 2033 c-6 -30 4 -74 16 -70 6 2 12 22 14 45 2 32 -1 42 -12 42
-8 0 -16 -8 -18 -17z"/>
<path d="M1529 2028 c-8 -15 -8 -18 0 -14 6 4 11 3 11 -2 0 -5 8 -19 19 -31
14 -16 20 -18 24 -8 3 8 1 20 -4 28 -7 12 -9 12 -9 -1 -1 -11 -4 -10 -15 4
-19 26 -19 42 0 26 9 -7 15 -8 15 -2 0 20 -30 21 -41 0z"/>
<path d="M2154 1930 c0 -69 1 -97 3 -62 2 34 2 90 0 125 -2 34 -3 6 -3 -63z"/>
<path d="M564 2016 c0 -14 6 -22 14 -19 15 6 15 11 -2 28 -12 12 -14 11 -12
-9z"/>
<path d="M1034 2026 c11 -9 24 -16 30 -16 12 0 7 5 -24 19 -24 11 -24 11 -6
-3z"/>
<path d="M1380 2034 c0 -6 6 -17 14 -23 11 -9 15 -8 20 4 4 10 2 14 -5 9 -6
-4 -15 0 -20 7 -5 8 -9 9 -9 3z"/>
<path d="M2671 2024 c0 -11 3 -14 6 -6 3 7 2 16 -1 19 -3 4 -6 -2 -5 -13z"/>
<path d="M4496 2014 c-9 -24 -7 -54 4 -54 6 0 10 16 10 35 0 38 -4 44 -14 19z"/>
<path d="M1368 1989 c12 -20 18 -40 14 -44 -4 -5 -2 -5 5 -1 15 8 6 34 -21 61
-17 18 -17 16 2 -16z"/>
<path d="M580 1980 l-25 -20 32 11 c18 6 30 15 27 20 -7 11 -5 12 -34 -11z"/>
<path d="M1427 1993 c-4 -3 -7 -11 -7 -17 0 -6 5 -5 12 2 6 6 9 14 7 17 -3 3
-9 2 -12 -2z"/>
<path d="M645 1970 c-13 -6 -15 -9 -5 -9 8 0 22 4 30 9 18 12 2 12 -25 0z"/>
<path d="M485 1950 c-3 -6 1 -7 9 -4 18 7 21 14 7 14 -6 0 -13 -4 -16 -10z"/>
<path d="M530 1956 c0 -2 7 -7 16 -10 8 -3 12 -2 9 4 -6 10 -25 14 -25 6z"/>
<path d="M2484 1947 c-3 -8 -4 -45 -2 -83 l3 -69 5 83 c5 82 4 94 -6 69z"/>
<path d="M2533 1880 c0 -47 2 -66 4 -42 2 23 2 61 0 85 -2 23 -4 4 -4 -43z"/>
<path d="M2663 1920 c0 -25 2 -35 4 -22 2 12 2 32 0 45 -2 12 -4 2 -4 -23z"/>
<path d="M3744 1720 c0 -135 2 -190 3 -122 2 67 2 177 0 245 -1 67 -3 12 -3
-123z"/>
<path d="M4544 1720 c0 -135 2 -190 3 -122 2 67 2 177 0 245 -1 67 -3 12 -3
-123z"/>
<path d="M691 1937 c9 -7 18 -19 22 -27 4 -11 6 -12 6 -1 1 11 4 11 16 1 12
-10 13 -15 4 -20 -6 -4 6 -7 27 -6 37 1 39 0 39 -31 0 -17 4 -35 8 -39 4 -5 5
0 1 10 -6 15 -3 17 14 12 25 -8 37 8 17 24 -10 9 -15 9 -15 1 0 -6 -5 -11 -11
-11 -6 0 -9 6 -6 14 7 18 -12 36 -31 29 -11 -5 -13 -3 -7 7 5 8 4 11 -3 6 -5
-3 -24 5 -40 19 -16 14 -36 25 -43 25 -11 -1 -10 -4 2 -13z"/>
<path d="M2643 1915 c0 -22 2 -30 4 -17 2 12 2 30 0 40 -3 9 -5 -1 -4 -23z"/>
<path d="M3918 1869 c-2 -45 0 -83 3 -85 4 -2 7 35 8 81 1 47 0 85 -3 85 -2 0
-6 -36 -8 -81z"/>
<path d="M1395 1929 c-4 -6 -5 -12 -2 -15 2 -3 7 2 10 11 7 17 1 20 -8 4z"/>
<path d="M1600 1925 c0 -8 4 -15 10 -15 5 0 7 7 4 15 -4 8 -8 15 -10 15 -2 0
-4 -7 -4 -15z"/>
<path d="M509 1915 c17 -37 55 -65 71 -54 12 8 11 9 -5 7 -14 -2 -20 3 -21 17
-2 39 -4 45 -15 45 -8 0 -7 -5 1 -15 22 -26 2 -29 -20 -4 -17 19 -19 20 -11 4z"/>
<path d="M1416 1905 c-4 -14 0 -37 7 -52 l14 -26 -1 30 c0 17 -5 29 -9 26 -4
-2 -5 7 -1 21 3 14 4 26 1 26 -3 0 -8 -11 -11 -25z"/>
<path d="M668 1907 c7 -8 9 -17 5 -20 -3 -4 -1 -7 5 -7 18 0 14 27 -4 34 -13
5 -14 4 -6 -7z"/>
<path d="M1610 1876 c-15 -39 -12 -46 6 -13 9 16 13 31 10 34 -3 3 -10 -6 -16
-21z"/>
<path d="M1967 1885 c-4 -8 -3 -16 1 -19 4 -3 9 4 9 15 2 23 -3 25 -10 4z"/>
<path d="M622 1864 c10 -10 23 -14 34 -10 21 8 17 11 -21 20 -28 7 -29 6 -13
-10z"/>
<path d="M593 1845 c-9 -10 -9 -14 1 -18 21 -8 40 8 24 20 -9 8 -16 7 -25 -2z"/>
<path d="M1626 1851 c-10 -16 6 -71 21 -71 12 0 12 4 -1 22 -22 31 -22 59 0
32 14 -18 15 -18 4 4 -12 24 -16 27 -24 13z"/>
<path d="M888 1821 c15 -13 18 -21 10 -24 -16 -5 1 -38 23 -45 10 -4 9 0 -3
15 -12 13 -15 22 -7 30 7 7 1 15 -18 27 l-28 17 23 -20z"/>
<path d="M841 1811 c-10 -7 -7 -9 12 -8 14 1 23 5 20 10 -6 9 -15 9 -32 -2z"/>
<path d="M627 1799 c7 -7 15 -10 18 -7 3 3 -2 9 -12 12 -14 6 -15 5 -6 -5z"/>
<path d="M674 1785 c-18 -15 -18 -15 0 -8 11 4 17 2 13 -3 -3 -5 3 -10 14 -10
18 0 19 1 4 12 -15 11 -15 13 2 17 13 3 14 5 2 6 -8 0 -24 -6 -35 -14z"/>
<path d="M930 1787 c0 -8 10 -17 22 -20 30 -8 30 -5 2 16 -19 14 -24 15 -24 4z"/>
<path d="M2213 1720 c0 -47 2 -66 4 -42 2 23 2 61 0 85 -2 23 -4 4 -4 -43z"/>
<path d="M1486 1765 c6 -29 6 -29 -9 -10 -9 11 -17 17 -17 13 0 -7 37 -78 46
-87 8 -9 -6 80 -15 96 -9 15 -10 12 -5 -12z"/>
<path d="M4357 1772 c4 -17 1 -20 -19 -16 -23 4 -23 4 2 -8 14 -7 29 -17 33
-23 4 -5 5 4 1 20 -4 17 -10 34 -15 39 -4 5 -5 0 -2 -12z"/>
<path d="M4435 1780 c-18 -8 -17 -9 8 -9 15 -1 27 4 27 9 0 12 -8 12 -35 0z"/>
<path d="M4380 1760 c0 -5 5 -10 10 -10 6 0 10 5 10 10 0 6 -4 10 -10 10 -5 0
-10 -4 -10 -10z"/>
<path d="M1677 1748 c15 -19 19 -68 9 -108 -5 -21 -5 -22 3 -5 9 19 10 19 10
-2 1 -13 5 -23 10 -23 5 0 7 9 4 20 -8 29 6 24 18 -6 5 -15 12 -24 15 -21 3 3
-6 26 -20 50 -15 25 -26 49 -24 53 4 16 -13 54 -24 54 -7 0 -7 -4 -1 -12z"/>
<path d="M3940 1749 c0 -5 5 -7 10 -4 6 3 10 8 10 11 0 2 -4 4 -10 4 -5 0 -10
-5 -10 -11z"/>
<path d="M3970 1750 c0 -5 7 -7 15 -4 8 4 15 8 15 10 0 2 -7 4 -15 4 -8 0 -15
-4 -15 -10z"/>
<path d="M892 1734 c10 -10 20 -16 22 -13 3 3 -5 11 -17 18 -21 13 -21 12 -5
-5z"/>
<path d="M975 1736 c-10 -7 -15 -19 -12 -27 4 -10 6 -9 6 4 1 13 6 17 20 12
22 -7 38 10 17 18 -8 3 -22 0 -31 -7z"/>
<path d="M750 1727 c0 -10 10 -22 23 -27 12 -5 18 -9 13 -9 -5 -1 24 -23 64
-50 74 -50 93 -54 111 -19 9 17 8 18 -10 6 -12 -7 -21 -16 -21 -21 0 -9 -41
16 -83 50 -27 22 -27 22 -6 33 11 7 18 14 16 17 -3 2 -18 -4 -33 -14 -27 -17
-28 -17 -21 0 4 10 3 16 -3 12 -5 -3 -18 5 -29 17 -18 19 -21 19 -21 5z"/>
<path d="M2153 1680 c0 -25 2 -35 4 -22 2 12 2 32 0 45 -2 12 -4 2 -4 -23z"/>
<path d="M2665 1645 c-4 -42 -5 -79 -2 -81 2 -3 8 29 12 71 4 42 5 79 2 81 -2
3 -8 -29 -12 -71z"/>
<path d="M1045 1691 c-3 -7 -1 -10 6 -9 6 2 14 -3 16 -10 3 -8 -1 -10 -13 -5
-11 4 -15 2 -12 -7 4 -14 58 -23 58 -10 0 15 -48 51 -55 41z"/>
<path d="M1895 1690 c3 -5 8 -10 11 -10 2 0 4 5 4 10 0 6 -5 10 -11 10 -5 0
-7 -4 -4 -10z"/>
<path d="M855 1670 c3 -5 8 -10 11 -10 2 0 4 5 4 10 0 6 -5 10 -11 10 -5 0 -7
-4 -4 -10z"/>
<path d="M4380 1660 c0 -11 4 -20 9 -20 5 0 7 9 4 20 -3 11 -7 20 -9 20 -2 0
-4 -9 -4 -20z"/>
<path d="M1873 1642 c-1 -9 -4 -28 -8 -42 -4 -15 0 -12 10 9 8 19 12 38 7 43
-4 4 -8 0 -9 -10z"/>
<path d="M1540 1627 c0 -4 -4 -6 -9 -3 -15 10 0 -32 17 -46 14 -12 14 -10 3
10 -13 25 -6 46 8 23 6 -10 10 -9 15 4 3 9 6 18 6 19 0 1 -9 2 -20 2 -11 0
-20 -4 -20 -9z"/>
<path d="M2481 1563 c0 -46 2 -83 7 -83 4 0 6 26 4 57 -5 101 -9 111 -11 26z"/>
<path d="M2533 1560 c0 -47 2 -66 4 -42 2 23 2 61 0 85 -2 23 -4 4 -4 -43z"/>
<path d="M2643 1600 c0 -25 2 -35 4 -22 2 12 2 32 0 45 -2 12 -4 2 -4 -23z"/>
<path d="M3923 1560 c0 -47 2 -66 4 -42 2 23 2 61 0 85 -2 23 -4 4 -4 -43z"/>
<path d="M4363 1600 c0 -25 2 -35 4 -22 2 12 2 32 0 45 -2 12 -4 2 -4 -23z"/>
<path d="M1080 1620 c0 -5 5 -10 11 -10 5 0 7 5 4 10 -3 6 -8 10 -11 10 -2 0
-4 -4 -4 -10z"/>
<path d="M2153 1555 c0 -44 2 -61 4 -37 2 23 2 59 0 80 -2 20 -4 1 -4 -43z"/>
<path d="M1586 1603 c-6 -14 -5 -15 5 -6 7 7 10 15 7 18 -3 3 -9 -2 -12 -12z"/>
<path d="M488 1588 c-21 -12 -38 -29 -38 -37 0 -11 -3 -12 -8 -4 -5 8 -11 8
-24 -1 -16 -12 -16 -15 -2 -32 14 -18 15 -18 9 4 -4 13 -2 22 4 22 6 0 11 -8
11 -17 1 -12 6 -7 15 12 13 30 13 30 15 5 l2 -25 7 25 c4 14 13 24 18 23 6 -1
17 4 23 12 7 8 9 15 4 15 -5 0 -2 5 6 10 30 19 -6 9 -42 -12z m32 -2 c0 -3 -4
-8 -10 -11 -5 -3 -10 -1 -10 4 0 6 5 11 10 11 6 0 10 -2 10 -4z"/>
<path d="M1680 1600 c0 -21 17 -46 25 -38 4 4 0 17 -9 30 -10 14 -16 17 -16 8z"/>
<path d="M1118 1595 c-3 -3 1 -22 8 -43 15 -42 18 -76 6 -68 -5 3 -6 -9 -4
-26 3 -19 1 -29 -6 -25 -5 4 -12 -4 -14 -17 -4 -21 -3 -23 13 -13 21 13 33 97
20 150 -10 42 -15 50 -23 42z"/>
<path d="M1045 1580 c3 -5 13 -10 21 -10 8 0 14 5 14 10 0 6 -9 10 -21 10 -11
0 -17 -4 -14 -10z"/>
<path d="M1844 1578 c3 -10 1 -18 -5 -18 -6 0 -9 -7 -5 -15 8 -21 -35 -60 -47
-43 -6 9 -7 8 -3 -4 3 -10 1 -18 -4 -18 -6 0 -11 12 -11 28 -1 19 -3 21 -6 7
-4 -23 32 -100 41 -86 4 5 2 12 -4 16 -5 3 -10 13 -10 22 0 13 3 13 15 3 8 -7
15 -10 15 -7 0 4 9 28 19 55 14 34 16 53 9 63 -8 11 -9 11 -4 -3z m-24 -88 c0
-5 -5 -10 -11 -10 -5 0 -7 5 -4 10 3 6 8 10 11 10 2 0 4 -4 4 -10z"/>
<path d="M940 1576 c0 -2 7 -9 15 -16 9 -7 15 -8 15 -2 0 5 -7 12 -15 16 -8 3
-15 4 -15 2z"/>
<path d="M1567 1565 c-4 -8 -2 -17 3 -20 6 -4 10 3 10 14 0 25 -6 27 -13 6z"/>
<path d="M527 1555 c-8 -20 -4 -29 11 -24 5 2 6 13 2 23 -6 19 -7 19 -13 1z"/>
<path d="M985 1549 c-4 -5 2 -18 12 -27 11 -9 25 -26 31 -37 6 -11 12 -15 12
-9 0 6 -9 23 -21 38 -11 14 -17 30 -14 36 3 5 2 10 -4 10 -5 0 -13 -5 -16 -11z"/>
<path d="M1024 1549 c-3 -6 -2 -15 3 -20 5 -5 9 -1 9 11 0 23 -2 24 -12 9z"/>
<path d="M1770 1555 c0 -5 5 -17 10 -25 5 -8 10 -10 10 -5 0 6 -5 17 -10 25
-5 8 -10 11 -10 5z"/>
<path d="M1577 1524 c-11 -12 -8 -26 5 -18 7 5 9 2 6 -8 -7 -17 7 -45 15 -32
7 13 -17 67 -26 58z"/>
<path d="M555 1504 c4 -10 7 -27 7 -37 0 -9 3 -15 9 -12 5 4 9 0 9 -9 0 -8 -3
-16 -7 -19 -5 -2 -2 -2 5 -1 15 4 15 -1 2 -27 -7 -13 -7 -19 0 -19 5 0 10 7
10 16 0 12 5 11 20 -7 15 -18 12 -7 -10 38 -16 34 -30 66 -30 72 0 5 -5 13
-12 17 -8 5 -9 2 -3 -12z"/>
<path d="M446 1495 c-11 -8 -14 -15 -7 -15 7 0 10 -4 7 -8 -2 -4 3 -18 13 -30
l17 -23 -1 25 c0 13 -3 28 -7 32 -14 13 -9 26 7 20 8 -3 15 -1 15 4 0 14 -22
12 -44 -5z m24 -35 c0 -5 -2 -10 -4 -10 -3 0 -8 5 -11 10 -3 6 -1 10 4 10 6 0
11 -4 11 -10z"/>
<path d="M500 1506 c0 -2 7 -9 15 -16 12 -10 15 -10 15 4 0 9 -7 16 -15 16 -8
0 -15 -2 -15 -4z"/>
<path d="M1658 1468 c7 -7 12 -21 12 -32 0 -10 3 -17 6 -13 10 10 -5 57 -18
57 -9 0 -9 -3 0 -12z"/>
<path d="M2652 1460 c0 -14 2 -19 5 -12 2 6 2 18 0 25 -3 6 -5 1 -5 -13z"/>
<path d="M3861 1405 l2 -80 7 70 c4 39 4 74 -1 80 -5 5 -8 -24 -8 -70z"/>
<path d="M4343 1420 c0 -36 2 -50 4 -32 2 17 2 47 0 65 -2 17 -4 3 -4 -33z"/>
<path d="M1625 1460 c3 -5 8 -10 11 -10 2 0 4 5 4 10 0 6 -5 10 -11 10 -5 0
-7 -4 -4 -10z"/>
<path d="M1760 1448 c0 -9 5 -20 10 -23 13 -8 13 5 0 25 -8 13 -10 13 -10 -2z"/>
<path d="M4536 1414 c-3 -26 -4 -49 -2 -52 3 -2 8 17 11 43 4 25 5 48 3 51 -3
2 -8 -17 -12 -42z"/>
<path d="M520 1441 c0 -5 7 -12 16 -15 14 -5 15 -4 4 9 -14 17 -20 19 -20 6z"/>
<path d="M1611 1433 c0 -4 6 -24 14 -43 l13 -35 11 28 c14 35 14 47 1 47 -5 0
-7 -6 -4 -14 3 -8 1 -17 -5 -21 -7 -3 -11 2 -11 14 0 11 -4 23 -10 26 -5 3
-10 3 -9 -2z"/>
<path d="M2122 1420 c0 -14 2 -19 5 -12 2 6 2 18 0 25 -3 6 -5 1 -5 -13z"/>
<path d="M2135 1375 c-4 -37 -5 -69 -2 -71 2 -3 8 25 12 61 4 37 5 69 2 71 -2
3 -8 -25 -12 -61z"/>
<path d="M2201 1424 c0 -11 3 -14 6 -6 3 7 2 16 -1 19 -3 4 -6 -2 -5 -13z"/>
<path d="M2181 1414 c0 -11 3 -14 6 -6 3 7 2 16 -1 19 -3 4 -6 -2 -5 -13z"/>
<path d="M2671 1414 c0 -11 3 -14 6 -6 3 7 2 16 -1 19 -3 4 -6 -2 -5 -13z"/>
<path d="M4507 1375 c3 -33 7 -62 9 -64 8 -9 2 85 -6 104 -5 12 -6 -4 -3 -40z"/>
<path d="M1246 1403 c-10 -35 -4 -90 9 -90 10 0 10 7 3 29 -6 16 -7 40 -4 53
7 28 0 35 -8 8z"/>
<path d="M3286 1404 c-4 -9 -4 -31 0 -49 4 -22 1 -37 -10 -48 -12 -11 -13 -17
-3 -20 6 -3 -26 -5 -73 -4 l-85 1 70 6 70 7 -70 -1 c-41 -1 -69 -5 -67 -11 3
-15 167 -13 168 3 4 32 7 35 15 12 6 -18 7 -13 2 15 -4 22 -7 55 -7 73 1 36
-1 39 -10 16z"/>
<path d="M4360 1411 c0 -6 4 -13 10 -16 6 -3 7 1 4 9 -7 18 -14 21 -14 7z"/>
<path d="M2613 1370 c0 -25 2 -35 4 -22 2 12 2 32 0 45 -2 12 -4 2 -4 -23z"/>
<path d="M519 1384 c-10 -12 -10 -15 2 -12 8 2 13 -4 11 -14 -3 -21 10 -29 28
-16 12 8 12 9 -2 4 -19 -6 -25 9 -8 19 14 9 12 22 -4 28 -8 3 -20 -1 -27 -9z"/>
<path d="M1044 1375 c-3 -14 -4 -29 0 -32 3 -4 6 3 6 15 0 16 4 20 16 15 11
-4 15 -2 12 7 -8 25 -27 22 -34 -5z"/>
<path d="M2471 1383 c0 -11 3 -13 6 -5 2 6 10 9 15 6 7 -4 8 -2 4 4 -11 18
-26 14 -25 -5z"/>
<path d="M3722 1380 c0 -14 2 -19 5 -12 2 6 2 18 0 25 -3 6 -5 1 -5 -13z"/>
<path d="M1117 1383 c-4 -3 -7 -11 -7 -17 0 -6 5 -5 12 2 6 6 9 14 7 17 -3 3
-9 2 -12 -2z"/>
<path d="M3921 1374 c0 -11 3 -14 6 -6 3 7 2 16 -1 19 -3 4 -6 -2 -5 -13z"/>
<path d="M1656 1350 c-3 -20 0 -42 8 -58 14 -26 14 -25 11 27 -5 64 -10 73
-19 31z m11 -32 c-3 -8 -6 -5 -6 6 -1 11 2 17 5 13 3 -3 4 -12 1 -19z"/>
<path d="M1766 1365 c-9 -26 -7 -32 5 -12 6 10 9 21 6 23 -2 3 -7 -2 -11 -11z"/>
<path d="M590 1354 c0 -8 5 -12 10 -9 6 4 8 11 5 16 -9 14 -15 11 -15 -7z"/>
<path d="M2592 1350 c0 -14 2 -19 5 -12 2 6 2 18 0 25 -3 6 -5 1 -5 -13z"/>
<path d="M1080 1345 c0 -8 5 -15 10 -15 6 0 10 7 10 15 0 8 -4 15 -10 15 -5 0
-10 -7 -10 -15z"/>
<path d="M2281 1344 c0 -11 3 -14 6 -6 3 7 2 16 -1 19 -3 4 -6 -2 -5 -13z"/>
<path d="M2662 1340 c0 -14 2 -19 5 -12 2 6 2 18 0 25 -3 6 -5 1 -5 -13z"/>
<path d="M4361 1343 c-1 -13 -5 -23 -11 -23 -16 0 -11 -17 6 -24 24 -9 26 -3
15 35 -7 26 -9 28 -10 12z"/>
<path d="M2151 1334 c0 -11 3 -14 6 -6 3 7 2 16 -1 19 -3 4 -6 -2 -5 -13z"/>
<path d="M3096 1341 c-4 -7 -5 -15 -2 -18 9 -9 19 4 14 18 -4 11 -6 11 -12 0z"/>
<path d="M4541 1334 c0 -11 3 -14 6 -6 3 7 2 16 -1 19 -3 4 -6 -2 -5 -13z"/>
<path d="M644 1328 c-4 -7 -4 -10 1 -6 4 4 14 1 22 -7 22 -23 39 -18 18 5 -21
23 -31 25 -41 8z"/>
<path d="M2473 1321 c2 -11 7 -24 12 -28 4 -5 5 -3 2 4 -4 6 -3 13 2 15 5 1 3
9 -5 16 -12 11 -13 9 -11 -7z"/>
<path d="M3730 1322 c0 -14 6 -22 16 -22 14 0 15 3 3 18 -7 9 -15 19 -16 21
-2 2 -3 -5 -3 -17z"/>
<path d="M576 1316 c8 -20 51 -38 51 -21 0 7 -6 11 -14 8 -7 -3 -13 2 -13 11
0 9 -7 16 -15 16 -8 0 -12 -6 -9 -14z"/>
<path d="M1030 1322 c0 -6 -7 -18 -16 -26 -12 -12 -12 -16 -2 -16 10 0 9 -3
-2 -10 -8 -5 -10 -10 -5 -10 6 0 26 14 45 31 19 17 29 28 22 24 -7 -4 -19 -1
-27 5 -10 8 -15 9 -15 2z m20 -16 c0 -2 -7 -9 -15 -16 -13 -11 -14 -10 -9 4 5
14 24 23 24 12z"/>
<path d="M1740 1305 c-7 -9 -10 -18 -7 -21 3 -3 10 4 17 15 13 25 8 27 -10 6z"/>
<path d="M2312 1305 c-10 -12 -10 -15 0 -15 9 0 9 -3 -2 -10 -13 -9 -13 -10 0
-11 10 0 8 -3 -5 -9 -19 -8 -19 -9 4 -9 16 -1 21 3 18 13 -3 8 -1 17 6 20 9 3
9 5 0 5 -7 1 -10 8 -7 16 8 19 3 19 -14 0z"/>
<path d="M670 1290 c8 -5 22 -9 30 -9 10 0 8 3 -5 9 -27 12 -43 12 -25 0z"/>
<path d="M1245 1275 c0 -14 3 -25 8 -25 4 0 7 11 7 25 0 14 -3 25 -7 25 -5 0
-8 -11 -8 -25z"/>
<path d="M1689 1283 c-1 -13 -2 -29 -3 -35 -2 -22 38 -15 41 7 l3 20 -9 -20
c-8 -18 -10 -16 -19 15 -8 28 -11 31 -13 13z"/>
<path d="M2203 1293 c15 -2 37 -2 50 0 12 2 0 4 -28 4 -27 0 -38 -2 -22 -4z"/>
<path d="M2640 1296 c0 -10 28 -13 41 -5 10 6 7 9 -13 9 -16 0 -28 -2 -28 -4z"/>
<path d="M3910 1290 c20 -13 33 -13 25 0 -3 6 -14 10 -23 10 -15 0 -15 -2 -2
-10z"/>
<path d="M4468 1293 c12 -2 32 -2 45 0 12 2 2 4 -23 4 -25 0 -35 -2 -22 -4z"/>
<path d="M725 1281 c3 -5 -4 -13 -16 -16 -11 -4 -18 -9 -16 -12 3 -2 17 2 32
10 23 12 25 15 11 20 -9 4 -14 3 -11 -2z"/>
<path d="M2130 1280 l25 -8 -25 -2 c-23 -1 -23 -2 -5 -9 12 -5 23 -4 27 3 13
20 9 26 -19 25 l-28 -1 25 -8z"/>
<path d="M2464 1277 c3 -10 6 -21 6 -23 0 -2 10 -4 23 -3 14 0 17 2 7 6 -8 3
-21 13 -29 22 -12 15 -13 14 -7 -2z"/>
<path d="M3735 1280 c19 -8 103 -14 94 -6 -2 2 -29 6 -59 9 -36 4 -48 3 -35
-3z"/>
<path d="M4330 1284 c0 -9 24 -29 39 -32 21 -4 7 20 -17 29 -12 5 -22 6 -22 3z"/>
<path d="M650 1270 c8 -5 20 -10 25 -10 6 0 3 5 -5 10 -8 5 -19 10 -25 10 -5
0 -3 -5 5 -10z"/>
<path d="M972 1271 c-11 -7 -11 -9 0 -14 9 -3 15 1 15 9 0 8 -1 14 -1 14 -1 0
-7 -4 -14 -9z"/>
<path d="M2188 1273 c6 -2 18 -2 25 0 6 3 1 5 -13 5 -14 0 -19 -2 -12 -5z"/>
<path d="M2238 1273 c6 -2 18 -2 25 0 6 3 1 5 -13 5 -14 0 -19 -2 -12 -5z"/>
<path d="M2583 1273 c9 -2 25 -2 35 0 9 3 1 5 -18 5 -19 0 -27 -2 -17 -5z"/>
<path d="M2640 1270 c0 -5 -26 -11 -57 -13 -49 -3 -47 -4 15 -3 69 0 89 7 57
20 -8 3 -15 1 -15 -4z"/>
<path d="M3880 1270 c40 -6 35 -7 -40 -11 l-85 -3 79 -3 c44 -2 86 -1 95 2 26
10 -8 25 -54 23 l-40 -1 45 -7z"/>
<path d="M4468 1273 c6 -2 18 -2 25 0 6 3 1 5 -13 5 -14 0 -19 -2 -12 -5z"/>
<path d="M4550 1270 c0 -5 -37 -11 -82 -13 l-83 -3 88 -2 c72 -2 87 1 87 13 0
8 -2 15 -5 15 -3 0 -5 -4 -5 -10z"/>
<path d="M760 1260 c0 -6 7 -10 15 -10 8 0 15 2 15 4 0 2 -7 6 -15 10 -8 3
-15 1 -15 -4z"/>
<path d="M3095 1260 c3 -5 18 -10 32 -10 32 0 28 5 -10 14 -19 4 -26 3 -22 -4z"/>
<path d="M3290 1259 c0 -5 5 -7 10 -4 6 3 10 8 10 11 0 2 -4 4 -10 4 -5 0 -10
-5 -10 -11z"/>
<path d="M3720 1260 c0 -5 5 -10 10 -10 6 0 10 5 10 10 0 6 -4 10 -10 10 -5 0
-10 -4 -10 -10z"/>
<path d="M2188 1253 c18 -2 45 -2 60 0 15 2 0 4 -33 4 -33 0 -45 -2 -27 -4z"/>
<path d="M3213 1253 c15 -2 37 -2 50 0 12 2 0 4 -28 4 -27 0 -38 -2 -22 -4z"/>
<path d="M843 1233 c9 -2 23 -2 30 0 6 3 -1 5 -18 5 -16 0 -22 -2 -12 -5z"/>
</g>
</svg>
